<?xml version="1.0" encoding="utf-8"?>
<!-- Generator: Adobe Illustrator 18.0.0, SVG Export Plug-In . SVG Version: 6.00 Build 0)  -->
<!DOCTYPE svg PUBLIC "-//W3C//DTD SVG 1.1//EN" "http://www.w3.org/Graphics/SVG/1.1/DTD/svg11.dtd">
<svg version="1.1" xmlns="http://www.w3.org/2000/svg" xmlns:xlink="http://www.w3.org/1999/xlink" x="0px" y="0px"
	 viewBox="0 0 183.2 124" enable-background="new 0 0 183.2 124" xml:space="preserve">
<g id="Layer_6">
</g>
<g id="Layer_3">
	<g>
		<g>
			<defs>
				<path id="SVGID_3_" d="M-236.1-170.4c-1.4,0-2.5-1.1-2.5-2.5v-54c0-1.4,1.1-2.5,2.5-2.5h88.2c1.4,0,2.5,1.1,2.5,2.5v54
					c0,1.4-1.1,2.5-2.5,2.5H-236.1z"/>
			</defs>
			<clipPath id="SVGID_2_">
				<use xlink:href="#SVGID_3_"  overflow="visible"/>
			</clipPath>
			
				<circle clip-path="url(#SVGID_2_)" fill="none" stroke="#F26522" stroke-width="3" stroke-linecap="round" stroke-linejoin="round" stroke-miterlimit="10" cx="-210.1" cy="83.6" r="305"/>
		</g>
	</g>
	<g>
		<g>
			<defs>
				<polygon id="SVGID_5_" points="116.6,-187 104.2,-183 108.1,-195.5 136.9,-224 38.1,-227.3 38.1,-139.3 140.8,-139.3 
					140.8,-211.2 				"/>
			</defs>
			<clipPath id="SVGID_4_">
				<use xlink:href="#SVGID_5_"  overflow="visible"/>
			</clipPath>
			<g clip-path="url(#SVGID_4_)">
				<defs>
					<path id="SVGID_7_" d="M48.1-154.4c-1.4,0-2.5-1.1-2.5-2.5v-54c0-1.4,1.1-2.5,2.5-2.5h88.2c1.4,0,2.5,1.1,2.5,2.5v54
						c0,1.4-1.1,2.5-2.5,2.5H48.1z"/>
				</defs>
				<clipPath id="SVGID_6_">
					<use xlink:href="#SVGID_7_"  overflow="visible"/>
				</clipPath>
				
					<circle clip-path="url(#SVGID_6_)" fill="none" stroke="#F26522" stroke-width="3" stroke-linecap="round" stroke-linejoin="round" stroke-miterlimit="10" cx="74.2" cy="99.7" r="305"/>
			</g>
		</g>
	</g>
	<g>
		<g>
			<defs>
				<circle id="SVGID_27_" cx="121.2" cy="62" r="60.5"/>
			</defs>
			<clipPath id="SVGID_8_">
				<use xlink:href="#SVGID_27_"  overflow="visible"/>
			</clipPath>
			
				<path clip-path="url(#SVGID_8_)" fill="none" stroke="#000000" stroke-width="3" stroke-linecap="round" stroke-linejoin="round" stroke-miterlimit="10" d="
				M170.3,109.5l-15.7-11.4c-0.7-0.5-1.6-0.3-2.1,0.3l-0.1,0.1c-0.6,0.6-1.5,0.7-2.1,0.1l-4.9-4.4l0,0c-1-1-2.6-1-3.5,0l-3.4,3.4
				c-1.8,1.8-4.6,1.8-6.4,0c-1.5-1.5-1.7-3.7-0.7-5.4c0.7-1.2,0.4-2.7-0.8-3.4c-0.8-0.5-1.9-0.5-2.7,0c-1.2,0.8-2.8,0.4-3.6-0.8
				c-0.7-1.1-0.5-2.4,0.4-3.3l1.1-1.1c0.6-0.6,0.6-1.5,0-2.1l-2.6-2.6c-1-1-2.6-1-3.5,0s-1,2.6,0,3.5l0,0c0.7,0.7,0.7,1.7,0,2.4
				c-0.5,0.5-1.1,0.6-1.7,0.4l0,0c-4.1-1-7.2-4.8-7.2-9.2c0-5.2,4.3-9.5,9.5-9.5c2.6,0,5,1.1,6.7,2.8l5.8,5.8c0.6,0.6,1.5,0.6,2.1,0
				s0.6-1.5,0-2.1c-2.9-2.9-2.9-7.7,0-10.7l4.6-4.6c0.6-0.6,0.6-1.5,0-2.1l13.4-13.4c0.6-0.6,0.7-1.5,0.2-2.1
				c-0.2-0.2-0.5-0.4-0.7-0.5c-0.2-0.1-0.5,0-0.7,0.1l-3.8,1.9c-1.3,0.6-2.7,0-3.3-1.2c-0.5-1.1-0.2-2.4,0.8-3.1l0,0l4.9-3.1
				c1.3-0.6,2.7,0,3.3,1.2c0.3,0.7,1,1.1,1.7,1.1l-0.1,0h5.6c2.2,0,4-1.8,4-4c0-2.2-1.8-4-4-4c-1.2,1.2-3.2,1.2-4.5,0
				c-0.6-0.6-0.9-1.4-0.9-2.2v-2.9c0-1.4-1.1-2.5-2.5-2.5c-0.7,0-1.3,0.3-1.8,0.7c-1.4,1.4-3.7,1.4-5.1,0l-4-4
				c-1.6-1.6-4.1-1.6-5.7,0c-1.6,1.6-1.6,4.1,0,5.7c0.6,0.6,0.6,1.5,0,2.1c-1.3,1.3-1.9,3-1.9,4.7c0,0.8-0.7,1.5-1.5,1.5
				s-1.5-0.7-1.5-1.5c0-1-0.8-1.8-1.8-1.8h-7.1v0c-0.5-1.6-2-2.8-3.8-2.8c-2.2,0-4-1.8-4-4s1.8-4,4-4c4.3,0,7.8-3.5,7.8-7.8h0
				c0-0.8,0.7-1.5,1.5-1.5s1.5,0.7,1.5,1.5h0c0,1.6,1.5,2.8,3.2,2.4c0.9-0.2,1.5-0.9,1.8-1.8c0.2-0.9-0.1-1.8-0.7-2.4l-3.8-3.8
				c-0.6-0.6-1.5-0.6-2.1,0l-0.4,0.4c-1.6,1.6-4.1,1.6-5.7,0l-0.9-0.9h0c-0.5-0.5-1.4-0.5-1.9,0c-0.3,0.3-0.4,0.6-0.4,1v0
				c0,1.4-0.5,2.8-1.6,3.9c-2.1,2.1-5.6,2.1-7.8,0l-5-5c-2.1-2.1-2.1-5.6,0-7.8c2.1-2.1,5.6-2.1,7.8,0 M134.9,135.9
				c-6.8-5.4-7.2-15.3-1.2-21.2c0.1-0.1,0.2-0.2,0.2-0.2c0.6-0.6,0.6-1.5,0-2.1l-2.2-2.2c-0.5-0.5-0.7-1.4-0.2-2
				c0.1-0.1,0.2-0.3,0.4-0.4l0,0c-1.1-1.6-1-3.8,0.4-5.2c-4.2-1.7-7.5-5.5-8.5-10l0,0c-1.6-1.3-3.9-1.2-5.3,0.3
				c-0.6,0.6-1.5,0.6-2.1,0s-0.6-1.5,0-2.1c0.6-0.6,0.6-1.6,0-2.3c-0.4-0.4-1-0.6-1.6-0.4l0,0l0,0h-8.2c-6.8-2.8-11-9.5-11-16.4
				c0-3.5-2.8-6.2-6.2-6.2l0,0l0,0h0c-1.1,0-1.8,1.2-1.3,2.1l3.3,6c0.4,0.8,0.1,1.8-0.8,2.1c-0.7,0.3-1.5-0.1-1.8-0.8L77.2,53.8
				c-0.7-1.2-1-2.5-1-3.9v-12c0-0.8-0.3-1.6-0.9-2.1l-8.9-8.9"/>
		</g>
		
			<circle fill="none" stroke="#231F20" stroke-width="3" stroke-linecap="round" stroke-linejoin="round" stroke-miterlimit="10" cx="121.2" cy="62" r="60.5"/>
		
			<path fill="#FFFFFF" stroke="#231F20" stroke-width="3" stroke-linecap="round" stroke-linejoin="round" stroke-miterlimit="10" d="
			M95.3,95.2H4.7c-1.8,0-3.2-1.4-3.2-3.2V30.3c0-1.8,1.4-3.2,3.2-3.2h90.6c1.8,0,3.2,1.4,3.2,3.2V92C98.5,93.8,97,95.2,95.3,95.2z"
			/>
		
			<path fill="#FFFFFF" stroke="#F26522" stroke-width="3" stroke-linecap="round" stroke-linejoin="round" stroke-miterlimit="10" d="
			M22.4,45.2H11.8 M22.4,51.2H11.8 M11.8,57.2h10.6 M22.4,63.2H11.8 M11.8,69.2h10.6 M22.4,75.2H11.8 M11.8,81.2h10.6"/>
		<path fill="#231F20" d="M12,31.5c0,0.8-0.7,1.5-1.5,1.5S9,32.4,9,31.5c0-0.8,0.7-1.5,1.5-1.5S12,30.7,12,31.5z M15,30
			c-0.8,0-1.5,0.7-1.5,1.5c0,0.8,0.7,1.5,1.5,1.5c0.8,0,1.5-0.7,1.5-1.5C16.5,30.7,15.8,30,15,30z M19.5,30c-0.8,0-1.5,0.7-1.5,1.5
			c0,0.8,0.7,1.5,1.5,1.5c0.8,0,1.5-0.7,1.5-1.5C21,30.7,20.3,30,19.5,30z"/>
		<g>
			
				<line fill="none" stroke="#231F20" stroke-width="3" stroke-linecap="round" stroke-linejoin="round" stroke-miterlimit="10" x1="7.5" y1="36" x2="92.5" y2="36"/>
		</g>
		
			<line fill="none" stroke="#231F20" stroke-width="3" stroke-linecap="round" stroke-linejoin="round" stroke-miterlimit="10" x1="30.2" y1="36" x2="30.2" y2="89.2"/>
		
			<rect x="36.2" y="71.9" fill="none" stroke="#231F20" stroke-width="3" stroke-linecap="round" stroke-linejoin="round" stroke-miterlimit="10" width="56.2" height="17.3"/>
		
			<rect x="71.5" y="47" fill="#FFFFFF" stroke="#F26522" stroke-width="3" stroke-linecap="round" stroke-linejoin="round" stroke-miterlimit="10" width="6" height="17.7"/>
		
			<rect x="83.5" y="51.5" fill="#FFFFFF" stroke="#F26522" stroke-width="3" stroke-linecap="round" stroke-linejoin="round" stroke-miterlimit="10" width="6" height="13.2"/>
		
			<polyline fill="none" stroke="#231F20" stroke-width="3" stroke-linecap="round" stroke-linejoin="round" stroke-miterlimit="10" points="
			57.3,54.6 47.2,54.6 47.2,44.5 		"/>
		
			<circle fill="none" stroke="#231F20" stroke-width="3" stroke-linecap="round" stroke-linejoin="round" stroke-miterlimit="10" cx="47.2" cy="54.6" r="10.1"/>
		
			<polyline fill="none" stroke="#F26522" stroke-width="3" stroke-linecap="round" stroke-linejoin="round" stroke-miterlimit="10" points="
			92.5,64.7 65.5,64.7 65.5,44.5 		"/>
	</g>
</g>
</svg>
